<?xml version="1.0" encoding="utf-8"?>
<!-- Generator: Adobe Illustrator 23.0.5, SVG Export Plug-In . SVG Version: 6.00 Build 0)  -->
<svg version="1.1" id="Layer_1" xmlns="http://www.w3.org/2000/svg" xmlns:xlink="http://www.w3.org/1999/xlink" x="0px" y="0px"
	 viewBox="0 0 800 800" style="enable-background:new 0 0 800 800;" xml:space="preserve">
<style type="text/css">
	.st0{fill:#BBBBBB;}
</style>
<g>
	<path class="st0" d="M398.5,10.9C178.4,10.9,0,189.3,0,409.4c0,176,114.2,325.4,272.5,378.1c19.9,3.7,27.2-8.6,27.2-19.2
		c0-9.5-0.4-40.9-0.5-74.2c-110.9,24.1-134.2-47-134.2-47c-18.1-46.1-44.2-58.3-44.2-58.3c-36.2-24.7,2.7-24.2,2.7-24.2
		c40,2.8,61.1,41.1,61.1,41.1c35.5,60.9,93.2,43.3,115.9,33.1c3.6-25.8,13.9-43.3,25.3-53.3c-88.5-10.1-181.5-44.2-181.5-196.9
		c0-43.5,15.6-79,41.1-107c-4.1-10-17.8-50.6,3.9-105.4c0,0,33.5-10.7,109.6,40.8c31.8-8.8,65.9-13.3,99.7-13.4
		c33.9,0.1,68,4.6,99.8,13.4c76.1-51.6,109.5-40.8,109.5-40.8c21.7,54.9,8,95.4,3.9,105.4c25.5,27.9,41,63.4,41,107
		c0,153-93.2,186.7-181.9,196.6c14.3,12.4,27,36.6,27,73.8c0,53.3-0.5,96.2-0.5,109.3c0,10.6,7.2,23,27.4,19.1
		c158.2-52.7,272.3-202,272.3-378C796.9,189.3,618.5,10.9,398.5,10.9"/>
</g>
</svg>
