<?xml version="1.0" encoding="utf-8"?>
<!-- Generator: Adobe Illustrator 23.0.5, SVG Export Plug-In . SVG Version: 6.00 Build 0)  -->
<svg version="1.1"
	 id="Layer_1" image-rendering="optimizeQuality" shape-rendering="geometricPrecision" text-rendering="geometricPrecision"
	 xmlns="http://www.w3.org/2000/svg" xmlns:xlink="http://www.w3.org/1999/xlink" x="0px" y="0px" viewBox="0 0 3333 3102"
	 style="enable-background:new 0 0 3333 3102;" xml:space="preserve">
<style type="text/css">
	.st0{fill:#BBBBBB;}
</style>
<path class="st0" d="M1370.9-2803h640c26,0,47,21,47,47v196c52-57,118-109,199-151c107-56,240-92,395-92c356,0,569,113,693,299
	c122,183,155,433,155,715v1114c0,26-21,47-47,47h-667c-26,0-47-21-47-47v-988c0-113-1-243-42-340c-37-88-111-152-258-152
	c-154,0-241,55-290,138c-52,88-64,211-64,336v1005c0,26-21,47-47,47h-667c-26,0-47-21-47-47v-2082c0-26,21-47,47-47V-2803z
	 M955.9-3335c0,109-44,207-116,279c-71,71-170,116-279,116s-207-44-279-116c-71-71-116-170-116-279s44-207,116-279
	c71-71,170-116,279-116s207,44,279,116C910.9-3543,955.9-3444,955.9-3335z M214.9-2804h694c26,0,47,21,47,47v2082c0,26-21,47-47,47
	h-694c-26,0-47-21-47-47v-2082C167.9-2783,188.9-2804,214.9-2804z"/>
</svg>
