<?xml version="1.0" encoding="utf-8"?>
<!-- Generator: Adobe Illustrator 23.0.5, SVG Export Plug-In . SVG Version: 6.00 Build 0)  -->
<svg version="1.1"
	 id="Layer_1" image-rendering="optimizeQuality" shape-rendering="geometricPrecision" text-rendering="geometricPrecision"
	 xmlns="http://www.w3.org/2000/svg" xmlns:xlink="http://www.w3.org/1999/xlink" x="0px" y="0px" viewBox="0 0 3333 3102"
	 style="enable-background:new 0 0 3333 3102;" xml:space="preserve">
<style type="text/css">
	.st0{fill:#BBBBBB;}
</style>
<path class="st0" d="M1204.5,927h640c26,0,47,21,47,47v196c52-57,118-109,199-151c107-56,240-92,395-92c356,0,569,113,693,299
	c122,183,155,433,155,715v1114c0,26-21,47-47,47h-667c-26,0-47-21-47-47v-988c0-113-1-243-42-340c-37-88-111-152-258-152
	c-154,0-241,55-290,138c-52,88-64,211-64,336v1005c0,26-21,47-47,47h-667c-26,0-47-21-47-47V972c0-26,21-47,47-47V927z M789.5,395
	c0,109-44,207-116,279c-71,71-170,116-279,116s-207-44-279-116c-71-71-116-170-116-279s44-207,116-279c71-71,170-116,279-116
	s207,44,279,116C744.5,187,789.5,286,789.5,395z M48.5,926h694c26,0,47,21,47,47v2082c0,26-21,47-47,47h-694c-26,0-47-21-47-47V973
	C1.5,947,22.5,926,48.5,926z"/>
</svg>
