<svg width="200" height="500" viewBox="0 0 200 500" fill="none" xmlns="http://www.w3.org/2000/svg">
<g clip-path="url(#clip0_1_2)">
<path d="M171 3C185.359 3 197 14.6406 197 29L197 470C197 484.359 185.359 496 171 496H29C14.6406 496 2.99999 484.359 2.99999 470L2.99999 29C2.99999 14.6406 14.6406 3 29 3L171 3Z" fill="black"/>
<path d="M38 321C40.7614 321 43 323.239 43 326L43 352.837C43 355.599 40.7614 357.837 38 357.837H18C15.2386 357.837 13 355.599 13 352.837L13 326C13 323.239 15.2386 321 18 321H38Z" fill="#18335C"/>
<path d="M38 321C40.7614 321 43 323.749 43 327.14V351.698C43 355.089 40.7614 357.837 38 357.837H18C15.2386 357.837 13 355.089 13 351.698L13 327.14C13 323.749 15.2386 321 18 321H38Z" fill="#18335C"/>
<rect x="42" y="323.456" width="31.9256" height="26" rx="5" transform="rotate(90 42 323.456)" fill="#C2C4C8"/>
<path d="M38 361C40.7614 361 43 363.239 43 366L43 392.837C43 395.599 40.7614 397.837 38 397.837H18C15.2386 397.837 13 395.599 13 392.837L13 366C13 363.239 15.2386 361 18 361H38Z" fill="#18335C"/>
<path d="M38 361C40.7614 361 43 363.749 43 367.14V391.698C43 395.089 40.7614 397.837 38 397.837H18C15.2386 397.837 13 395.089 13 391.698L13 367.14C13 363.749 15.2386 361 18 361H38Z" fill="#18335C"/>
<rect x="42" y="363.456" width="31.9256" height="26" rx="5" transform="rotate(90 42 363.456)" fill="#C2C4C8"/>
<path d="M178 25C180.761 25 183 27.2386 183 30V50.0001C183 52.7615 180.761 55.0001 178 55.0001H158C155.239 55.0001 153 52.7615 153 50.0001V30C153 27.2386 155.239 25 158 25L178 25Z" fill="#18335C"/>
<path d="M178 25C180.761 25 183 27.2386 183 30V50C183 52.7615 180.761 55.0001 178 55.0001H158C155.239 55.0001 153 52.7615 153 50V30C153 27.2386 155.239 25 158 25L178 25Z" fill="#18335C"/>
<rect x="182" y="27.0001" width="26" height="26" rx="5" transform="rotate(90 182 27.0001)" fill="#C2C4C8"/>
<path d="M38 25C40.7614 25 43 27.2386 43 30L43 56.8374C43 59.5988 40.7614 61.8374 38 61.8374H18C15.2386 61.8374 13 59.5988 13 56.8374L13 30C13 27.2386 15.2386 25 18 25L38 25Z" fill="#18335C"/>
<path d="M38 25C40.7614 25 43 27.7488 43 31.1395V55.6978C43 59.0885 40.7614 61.8374 38 61.8374H18C15.2386 61.8374 13 59.0885 13 55.6978L13 31.1395C13 27.7488 15.2386 25 18 25L38 25Z" fill="#18335C"/>
<rect x="42" y="27.4559" width="31.9256" height="26" rx="5" transform="rotate(90 42 27.4559)" fill="#C2C4C8"/>
<path d="M38 66C40.7614 66 43 68.2386 43 71L43 98C43 100.761 40.7614 103 38 103H18C15.2386 103 13 100.761 13 98L13 71C13 68.2386 15.2386 66 18 66H38Z" fill="#18335C"/>
<path d="M38 66C40.7614 66 43 68.7609 43 72.1666V96.8333C43 100.239 40.7614 103 38 103H18C15.2386 103 13 100.239 13 96.8333L13 72.1666C13 68.7609 15.2386 66 18 66H38Z" fill="#18335C"/>
<rect x="42" y="68" width="32" height="26" rx="5" transform="rotate(90 42 68)" fill="#C2C4C8"/>
<path d="M38 107C40.7614 107 43 109.239 43 112L43 139C43 141.761 40.7614 144 38 144H18C15.2386 144 13 141.761 13 139L13 112C13 109.239 15.2386 107 18 107H38Z" fill="#18335C"/>
<path d="M38 107C40.7614 107 43 109.761 43 113.167V137.833C43 141.239 40.7614 144 38 144H18C15.2386 144 13 141.239 13 137.833L13 113.167C13 109.761 15.2386 107 18 107H38Z" fill="#18335C"/>
<rect x="42" y="109" width="32" height="26" rx="5" transform="rotate(90 42 109)" fill="#C2C4C8"/>
<path d="M108 111C110.761 111 113 113.239 113 116V136C113 138.761 110.761 141 108 141H88C85.2386 141 83 138.761 83 136V116C83 113.239 85.2386 111 88 111H108Z" fill="#18335C"/>
<path d="M108 111C110.761 111 113 113.239 113 116V136C113 138.761 110.761 141 108 141H88C85.2386 141 83 138.761 83 136V116C83 113.239 85.2386 111 88 111H108Z" fill="#18335C"/>
<rect x="112" y="113" width="26" height="26" rx="5" transform="rotate(90 112 113)" fill="#C2C4C8"/>
<path d="M108 144C110.761 144 113 146.239 113 149V169C113 171.761 110.761 174 108 174H88C85.2386 174 83 171.761 83 169V149C83 146.239 85.2386 144 88 144H108Z" fill="#18335C"/>
<path d="M108 144C110.761 144 113 146.239 113 149V169C113 171.761 110.761 174 108 174H88C85.2386 174 83 171.761 83 169V149C83 146.239 85.2386 144 88 144H108Z" fill="#18335C"/>
<rect x="112" y="146" width="26" height="26" rx="5" transform="rotate(90 112 146)" fill="#C2C4C8"/>
<path d="M108 177C110.761 177 113 179.239 113 182V202C113 204.761 110.761 207 108 207H88C85.2386 207 83 204.761 83 202V182C83 179.239 85.2386 177 88 177H108Z" fill="#18335C"/>
<path d="M108 177C110.761 177 113 179.239 113 182V202C113 204.761 110.761 207 108 207H88C85.2386 207 83 204.761 83 202V182C83 179.239 85.2386 177 88 177H108Z" fill="#18335C"/>
<rect x="112" y="179" width="26" height="26" rx="5" transform="rotate(90 112 179)" fill="#C2C4C8"/>
<path d="M108 210C110.761 210 113 212.239 113 215V235C113 237.761 110.761 240 108 240H88C85.2386 240 83 237.761 83 235V215C83 212.239 85.2386 210 88 210H108Z" fill="#18335C"/>
<path d="M108 210C110.761 210 113 212.239 113 215V235C113 237.761 110.761 240 108 240H88C85.2386 240 83 237.761 83 235V215C83 212.239 85.2386 210 88 210H108Z" fill="#18335C"/>
<rect x="112" y="212" width="26" height="26" rx="5" transform="rotate(90 112 212)" fill="#C2C4C8"/>
<path d="M108 243C110.761 243 113 245.239 113 248V268C113 270.761 110.761 273 108 273H88C85.2386 273 83 270.761 83 268V248C83 245.239 85.2386 243 88 243H108Z" fill="#18335C"/>
<path d="M108 243C110.761 243 113 245.239 113 248V268C113 270.761 110.761 273 108 273H88C85.2386 273 83 270.761 83 268V248C83 245.239 85.2386 243 88 243H108Z" fill="#18335C"/>
<rect x="112" y="245" width="26" height="26" rx="5" transform="rotate(90 112 245)" fill="#C2C4C8"/>
<path d="M108 276C110.761 276 113 278.239 113 281V301C113 303.761 110.761 306 108 306H88C85.2386 306 83 303.761 83 301V281C83 278.239 85.2386 276 88 276H108Z" fill="#18335C"/>
<path d="M108 276C110.761 276 113 278.239 113 281V301C113 303.761 110.761 306 108 306H88C85.2386 306 83 303.761 83 301V281C83 278.239 85.2386 276 88 276H108Z" fill="#18335C"/>
<rect x="112" y="278" width="26" height="26" rx="5" transform="rotate(90 112 278)" fill="#C2C4C8"/>
<path d="M108 309C110.761 309 113 311.239 113 314V334C113 336.761 110.761 339 108 339H88C85.2386 339 83 336.761 83 334V314C83 311.239 85.2386 309 88 309H108Z" fill="#18335C"/>
<path d="M108 309C110.761 309 113 311.239 113 314V334C113 336.761 110.761 339 108 339H88C85.2386 339 83 336.761 83 334V314C83 311.239 85.2386 309 88 309H108Z" fill="#18335C"/>
<rect x="112" y="311" width="26" height="26" rx="5" transform="rotate(90 112 311)" fill="#C2C4C8"/>
<path d="M108 342C110.761 342 113 344.239 113 347V367C113 369.761 110.761 372 108 372H88C85.2386 372 83 369.761 83 367V347C83 344.239 85.2386 342 88 342H108Z" fill="#18335C"/>
<path d="M108 342C110.761 342 113 344.239 113 347V367C113 369.761 110.761 372 108 372H88C85.2386 372 83 369.761 83 367V347C83 344.239 85.2386 342 88 342H108Z" fill="#18335C"/>
<rect x="112" y="344" width="26" height="26" rx="5" transform="rotate(90 112 344)" fill="#C2C4C8"/>
<path d="M108 375C110.761 375 113 377.239 113 380V400C113 402.761 110.761 405 108 405H88C85.2386 405 83 402.761 83 400V380C83 377.239 85.2386 375 88 375H108Z" fill="#18335C"/>
<path d="M108 375C110.761 375 113 377.239 113 380V400C113 402.761 110.761 405 108 405H88C85.2386 405 83 402.761 83 400V380C83 377.239 85.2386 375 88 375H108Z" fill="#18335C"/>
<rect x="112" y="377" width="26" height="26" rx="5" transform="rotate(90 112 377)" fill="#C2C4C8"/>
<path d="M108 409C110.761 409 113 411.239 113 414L113 473C113 475.761 110.761 478 108 478H88C85.2386 478 83 475.761 83 473V414C83 411.239 85.2386 409 88 409H108Z" fill="#18335C"/>
<path d="M108 409C110.761 409 113 414.149 113 420.5V466.5C113 472.851 110.761 478 108 478H88C85.2386 478 83 472.851 83 466.5V420.5C83 414.149 85.2386 409 88 409H108Z" fill="#18335C"/>
<rect x="112" y="411" width="64.9998" height="26" rx="5" transform="rotate(90 112 411)" fill="#C2C4C8"/>
<path d="M73 133C75.7614 133 78 135.239 78 138V158C78 160.761 75.7614 163 73 163H53C50.2386 163 48 160.761 48 158V138C48 135.239 50.2386 133 53 133H73Z" fill="#18335C"/>
<path d="M73 133C75.7614 133 78 135.239 78 138V158C78 160.761 75.7614 163 73 163H53C50.2386 163 48 160.761 48 158V138C48 135.239 50.2386 133 53 133H73Z" fill="#18335C"/>
<rect x="77" y="135" width="26" height="26" rx="5" transform="rotate(90 77 135)" fill="#C2C4C8"/>
<path d="M73 166C75.7614 166 78 168.239 78 171V191C78 193.761 75.7614 196 73 196H53C50.2386 196 48 193.761 48 191V171C48 168.239 50.2386 166 53 166H73Z" fill="#18335C"/>
<path d="M73 166C75.7614 166 78 168.239 78 171V191C78 193.761 75.7614 196 73 196H53C50.2386 196 48 193.761 48 191V171C48 168.239 50.2386 166 53 166H73Z" fill="#18335C"/>
<rect x="77" y="168" width="26" height="26" rx="5" transform="rotate(90 77 168)" fill="#C2C4C8"/>
<path d="M73 199C75.7614 199 78 201.239 78 204V224C78 226.761 75.7614 229 73 229H53C50.2386 229 48 226.761 48 224V204C48 201.239 50.2386 199 53 199H73Z" fill="#18335C"/>
<path d="M73 199C75.7614 199 78 201.239 78 204V224C78 226.761 75.7614 229 73 229H53C50.2386 229 48 226.761 48 224V204C48 201.239 50.2386 199 53 199H73Z" fill="#18335C"/>
<rect x="77" y="201" width="26" height="26" rx="5" transform="rotate(90 77 201)" fill="#C2C4C8"/>
<path d="M73 232C75.7614 232 78 234.239 78 237V257C78 259.761 75.7614 262 73 262H53C50.2386 262 48 259.761 48 257V237C48 234.239 50.2386 232 53 232H73Z" fill="#18335C"/>
<path d="M73 232C75.7614 232 78 234.239 78 237V257C78 259.761 75.7614 262 73 262H53C50.2386 262 48 259.761 48 257V237C48 234.239 50.2386 232 53 232H73Z" fill="#18335C"/>
<rect x="77" y="234" width="26" height="26" rx="5" transform="rotate(90 77 234)" fill="#C2C4C8"/>
<path d="M73 265C75.7614 265 78 267.239 78 270V290C78 292.761 75.7614 295 73 295H53C50.2386 295 48 292.761 48 290V270C48 267.239 50.2386 265 53 265H73Z" fill="#18335C"/>
<path d="M73 265C75.7614 265 78 267.239 78 270V290C78 292.761 75.7614 295 73 295H53C50.2386 295 48 292.761 48 290V270C48 267.239 50.2386 265 53 265H73Z" fill="#18335C"/>
<rect x="77" y="267" width="26" height="26" rx="5" transform="rotate(90 77 267)" fill="#C2C4C8"/>
<path d="M73 298C75.7614 298 78 300.239 78 303V323C78 325.761 75.7614 328 73 328H53C50.2386 328 48 325.761 48 323V303C48 300.239 50.2386 298 53 298H73Z" fill="#18335C"/>
<path d="M73 298C75.7614 298 78 300.239 78 303V323C78 325.761 75.7614 328 73 328H53C50.2386 328 48 325.761 48 323V303C48 300.239 50.2386 298 53 298H73Z" fill="#18335C"/>
<rect x="77" y="300" width="26" height="26" rx="5" transform="rotate(90 77 300)" fill="#C2C4C8"/>
<path d="M73 331C75.7614 331 78 333.239 78 336V356C78 358.761 75.7614 361 73 361H53C50.2386 361 48 358.761 48 356V336C48 333.239 50.2386 331 53 331H73Z" fill="#18335C"/>
<path d="M73 331C75.7614 331 78 333.239 78 336V356C78 358.761 75.7614 361 73 361H53C50.2386 361 48 358.761 48 356V336C48 333.239 50.2386 331 53 331H73Z" fill="#18335C"/>
<rect x="77" y="333" width="26" height="26" rx="5" transform="rotate(90 77 333)" fill="#C2C4C8"/>
<path d="M73 364C75.7614 364 78 366.239 78 369V389C78 391.761 75.7614 394 73 394H53C50.2386 394 48 391.761 48 389V369C48 366.239 50.2386 364 53 364H73Z" fill="#18335C"/>
<path d="M73 364C75.7614 364 78 366.239 78 369V389C78 391.761 75.7614 394 73 394H53C50.2386 394 48 391.761 48 389V369C48 366.239 50.2386 364 53 364H73Z" fill="#18335C"/>
<rect x="77" y="366" width="26" height="26" rx="5" transform="rotate(90 77 366)" fill="#C2C4C8"/>
<path d="M73 398C75.7614 398 78 400.239 78 403L78 473C78 475.761 75.7614 478 73 478H53C50.2386 478 48 475.761 48 473L48 403C48 400.239 50.2386 398 53 398H73Z" fill="#18335C"/>
<path d="M73 398C75.7614 398 78 403.969 78 411.333L78 464.667C78 472.03 75.7614 478 73 478H53C50.2386 478 48 472.03 48 464.667L48 411.333C48 403.97 50.2386 398 53 398H73Z" fill="#18335C"/>
<rect x="77" y="400" width="76" height="26" rx="5" transform="rotate(90 77 400)" fill="#C2C4C8"/>
<path d="M38 148C40.7614 148 43 150.239 43 153L43 312C43 314.761 40.7614 317 38 317H18C15.2386 317 13 314.761 13 312L13 153C13 150.239 15.2386 148 18 148H38Z" fill="#18335C"/>
<path d="M38 148C40.7614 148 43 160.611 43 176.167L43 288.833C43 304.389 40.7614 317 38 317H18C15.2386 317 13 304.389 13 288.833L13 176.167C13 160.611 15.2386 148 18 148H38Z" fill="#18335C"/>
<rect x="42" y="149.449" width="165.137" height="26" rx="5" transform="rotate(90 42 149.449)" fill="#C2C4C8"/>
<path d="M73 26C75.7614 26 78 28.2386 78 31L78 90C78 92.7614 75.7614 95 73 95H53C50.2386 95 48 92.7614 48 90L48 31C48 28.2386 50.2386 26 53 26L73 26Z" fill="#18335C"/>
<path d="M73 26C75.7614 26 78 31.1487 78 37.4999V83.4999C78 89.8512 75.7614 95 73 95H53C50.2386 95 48 89.8512 48 83.4999L48 37.5C48 31.1487 50.2386 26 53 26L73 26Z" fill="#18335C"/>
<rect x="77" y="28.0001" width="64.9998" height="26" rx="5" transform="rotate(90 77 28.0001)" fill="#C2C4C8"/>
<path d="M73 99C75.7614 99 78 101.239 78 104V124C78 126.761 75.7614 129 73 129H53C50.2386 129 48 126.761 48 124V104C48 101.239 50.2386 99 53 99H73Z" fill="#18335C"/>
<path d="M73 99C75.7614 99 78 101.239 78 104V124C78 126.761 75.7614 129 73 129H53C50.2386 129 48 126.761 48 124V104C48 101.239 50.2386 99 53 99H73Z" fill="#18335C"/>
<rect x="77" y="101" width="26" height="26" rx="5" transform="rotate(90 77 101)" fill="#C2C4C8"/>
<path d="M143 25C145.761 25 148 27.2386 148 30V62C148 64.7614 145.761 67 143 67H123C120.239 67 118 64.7614 118 62V30C118 27.2386 120.239 25 123 25L143 25Z" fill="#18335C"/>
<path d="M143 25C145.761 25 148 28.134 148 32V60C148 63.8659 145.761 67 143 67H123C120.239 67 118 63.8659 118 60V32C118 28.134 120.239 25 123 25L143 25Z" fill="#18335C"/>
<rect x="147" y="26.8261" width="37.9825" height="26" rx="5" transform="rotate(90 147 26.8261)" fill="#C2C4C8"/>
<path d="M108 25C110.761 25 113 27.2386 113 30V69C113 71.7614 110.761 74 108 74H88C85.2386 74 83 71.7614 83 69V30C83 27.2386 85.2386 25 88 25L108 25Z" fill="#18335C"/>
<path d="M108 25C110.761 25 113 28.6563 113 33.1666V65.8333C113 70.3436 110.761 74 108 74H88C85.2386 74 83 70.3436 83 65.8333V33.1666C83 28.6563 85.2386 25 88 25L108 25Z" fill="#18335C"/>
<rect x="112" y="27.1304" width="44.3129" height="26" rx="5" transform="rotate(90 112 27.1304)" fill="#C2C4C8"/>
<path d="M143 436C145.761 436 148 438.239 148 441V473C148 475.761 145.761 478 143 478H123C120.239 478 118 475.761 118 473V441C118 438.239 120.239 436 123 436H143Z" fill="#18335C"/>
<path d="M143 436C145.761 436 148 439.134 148 443V471C148 474.866 145.761 478 143 478H123C120.239 478 118 474.866 118 471V443C118 439.134 120.239 436 123 436H143Z" fill="#18335C"/>
<rect x="147" y="437.826" width="37.9825" height="26" rx="5" transform="rotate(90 147 437.826)" fill="#C2C4C8"/>
<path d="M178 388C180.761 388 183 390.239 183 393V413C183 415.761 180.761 418 178 418H158C155.239 418 153 415.761 153 413V393C153 390.239 155.239 388 158 388H178Z" fill="#18335C"/>
<path d="M178 388C180.761 388 183 390.239 183 393V413C183 415.761 180.761 418 178 418H158C155.239 418 153 415.761 153 413V393C153 390.239 155.239 388 158 388H178Z" fill="#18335C"/>
<rect x="182" y="390" width="26" height="26" rx="5" transform="rotate(90 182 390)" fill="#C2C4C8"/>
<path d="M178 421C180.761 421 183 423.239 183 426V472C183 474.761 180.761 477 178 477H158C155.239 477 153 474.761 153 472V426C153 423.239 155.239 421 158 421H178Z" fill="#18335C"/>
<path d="M178 421C180.761 421 183 425.179 183 430.333V467.667C183 472.821 180.761 477 178 477H158C155.239 477 153 472.821 153 467.667V430.333C153 425.179 155.239 421 158 421H178Z" fill="#18335C"/>
<rect x="182" y="423" width="51.9999" height="26" rx="5" transform="rotate(90 182 423)" fill="#C2C4C8"/>
<path d="M178 91.0001C180.761 91.0001 183 93.2386 183 96.0001V116C183 118.762 180.761 121 178 121H158C155.239 121 153 118.762 153 116V96.0001C153 93.2386 155.239 91.0001 158 91.0001H178Z" fill="#18335C"/>
<path d="M178 91.0001C180.761 91.0001 183 93.2386 183 96V116C183 118.762 180.761 121 178 121H158C155.239 121 153 118.762 153 116V96.0001C153 93.2386 155.239 91.0001 158 91.0001H178Z" fill="#18335C"/>
<rect x="182" y="93.0001" width="26" height="26" rx="5" transform="rotate(90 182 93.0001)" fill="#C2C4C8"/>
<path d="M178 58.0001C180.761 58.0001 183 60.2386 183 63.0001V83.0001C183 85.7616 180.761 88.0001 178 88.0001H158C155.239 88.0001 153 85.7616 153 83.0001V63.0001C153 60.2386 155.239 58.0001 158 58.0001H178Z" fill="#18335C"/>
<path d="M178 58.0001C180.761 58.0001 183 60.2386 183 63V83.0001C183 85.7615 180.761 88.0001 178 88.0001H158C155.239 88.0001 153 85.7615 153 83.0001V63.0001C153 60.2386 155.239 58.0001 158 58.0001H178Z" fill="#18335C"/>
<rect x="182" y="60.0001" width="26" height="26" rx="5" transform="rotate(90 182 60.0001)" fill="#C2C4C8"/>
<path d="M178 124C180.761 124 183 126.239 183 129V149C183 151.761 180.761 154 178 154H158C155.239 154 153 151.761 153 149V129C153 126.239 155.239 124 158 124H178Z" fill="#18335C"/>
<path d="M178 124C180.761 124 183 126.239 183 129V149C183 151.761 180.761 154 178 154H158C155.239 154 153 151.761 153 149V129C153 126.239 155.239 124 158 124H178Z" fill="#18335C"/>
<rect x="182" y="126" width="26" height="26" rx="5" transform="rotate(90 182 126)" fill="#C2C4C8"/>
<path d="M178 223C180.761 223 183 225.239 183 228V248C183 250.761 180.761 253 178 253H158C155.239 253 153 250.761 153 248V228C153 225.239 155.239 223 158 223H178Z" fill="#18335C"/>
<path d="M178 223C180.761 223 183 225.239 183 228V248C183 250.761 180.761 253 178 253H158C155.239 253 153 250.761 153 248V228C153 225.239 155.239 223 158 223H178Z" fill="#18335C"/>
<rect x="182" y="225" width="26" height="26" rx="5" transform="rotate(90 182 225)" fill="#C2C4C8"/>
<path d="M178 289C180.761 289 183 291.239 183 294V314C183 316.762 180.761 319 178 319H158C155.239 319 153 316.762 153 314V294C153 291.239 155.239 289 158 289H178Z" fill="#18335C"/>
<path d="M178 289C180.761 289 183 291.239 183 294V314C183 316.762 180.761 319 178 319H158C155.239 319 153 316.762 153 314V294C153 291.239 155.239 289 158 289H178Z" fill="#18335C"/>
<rect x="182" y="291" width="26" height="26" rx="5" transform="rotate(90 182 291)" fill="#C2C4C8"/>
<path d="M178 256C180.761 256 183 258.239 183 261V281C183 283.762 180.761 286 178 286H158C155.239 286 153 283.762 153 281V261C153 258.239 155.239 256 158 256H178Z" fill="#18335C"/>
<path d="M178 256C180.761 256 183 258.239 183 261V281C183 283.762 180.761 286 178 286H158C155.239 286 153 283.762 153 281V261C153 258.239 155.239 256 158 256H178Z" fill="#18335C"/>
<rect x="182" y="258" width="26" height="26" rx="5" transform="rotate(90 182 258)" fill="#C2C4C8"/>
<path d="M178 190C180.761 190 183 192.239 183 195V215C183 217.762 180.761 220 178 220H158C155.239 220 153 217.762 153 215V195C153 192.239 155.239 190 158 190H178Z" fill="#18335C"/>
<path d="M178 190C180.761 190 183 192.239 183 195V215C183 217.762 180.761 220 178 220H158C155.239 220 153 217.762 153 215V195C153 192.239 155.239 190 158 190H178Z" fill="#18335C"/>
<rect x="182" y="192" width="26" height="26" rx="5" transform="rotate(90 182 192)" fill="#C2C4C8"/>
<path d="M178 289C180.761 289 183 291.239 183 294V314C183 316.761 180.761 319 178 319H158C155.239 319 153 316.761 153 314V294C153 291.239 155.239 289 158 289H178Z" fill="#18335C"/>
<path d="M178 289C180.761 289 183 291.239 183 294V314C183 316.761 180.761 319 178 319H158C155.239 319 153 316.761 153 314V294C153 291.239 155.239 289 158 289H178Z" fill="#18335C"/>
<rect x="182" y="291" width="26" height="26" rx="5" transform="rotate(90 182 291)" fill="#C2C4C8"/>
<path d="M178 355C180.761 355 183 357.239 183 360V380C183 382.762 180.761 385 178 385H158C155.239 385 153 382.762 153 380V360C153 357.239 155.239 355 158 355H178Z" fill="#18335C"/>
<path d="M178 355C180.761 355 183 357.239 183 360V380C183 382.762 180.761 385 178 385H158C155.239 385 153 382.762 153 380V360C153 357.239 155.239 355 158 355H178Z" fill="#18335C"/>
<rect x="182" y="357" width="26" height="26" rx="5" transform="rotate(90 182 357)" fill="#C2C4C8"/>
<path d="M178 322C180.761 322 183 324.239 183 327V347C183 349.762 180.761 352 178 352H158C155.239 352 153 349.762 153 347V327C153 324.239 155.239 322 158 322H178Z" fill="#18335C"/>
<path d="M178 322C180.761 322 183 324.239 183 327V347C183 349.762 180.761 352 178 352H158C155.239 352 153 349.762 153 347V327C153 324.239 155.239 322 158 322H178Z" fill="#18335C"/>
<rect x="182" y="324" width="26" height="26" rx="5" transform="rotate(90 182 324)" fill="#C2C4C8"/>
<path d="M178 157C180.761 157 183 159.239 183 162V182C183 184.762 180.761 187 178 187H158C155.239 187 153 184.762 153 182V162C153 159.239 155.239 157 158 157H178Z" fill="#18335C"/>
<path d="M178 157C180.761 157 183 159.239 183 162V182C183 184.762 180.761 187 178 187H158C155.239 187 153 184.762 153 182V162C153 159.239 155.239 157 158 157H178Z" fill="#18335C"/>
<rect x="182" y="159" width="26" height="26" rx="5" transform="rotate(90 182 159)" fill="#C2C4C8"/>
<path d="M178 256C180.761 256 183 258.239 183 261V281C183 283.761 180.761 286 178 286H158C155.239 286 153 283.761 153 281V261C153 258.239 155.239 256 158 256H178Z" fill="#18335C"/>
<path d="M178 256C180.761 256 183 258.239 183 261V281C183 283.761 180.761 286 178 286H158C155.239 286 153 283.761 153 281V261C153 258.239 155.239 256 158 256H178Z" fill="#18335C"/>
<rect x="182" y="258" width="26" height="26" rx="5" transform="rotate(90 182 258)" fill="#C2C4C8"/>
<path d="M178 322C180.761 322 183 324.239 183 327V347C183 349.762 180.761 352 178 352H158C155.239 352 153 349.762 153 347V327C153 324.239 155.239 322 158 322H178Z" fill="#18335C"/>
<path d="M178 322C180.761 322 183 324.239 183 327V347C183 349.762 180.761 352 178 352H158C155.239 352 153 349.762 153 347V327C153 324.239 155.239 322 158 322H178Z" fill="#18335C"/>
<rect x="182" y="324" width="26" height="26" rx="5" transform="rotate(90 182 324)" fill="#C2C4C8"/>
<path d="M178 289C180.761 289 183 291.239 183 294V314C183 316.762 180.761 319 178 319H158C155.239 319 153 316.762 153 314V294C153 291.239 155.239 289 158 289H178Z" fill="#18335C"/>
<path d="M178 289C180.761 289 183 291.239 183 294V314C183 316.762 180.761 319 178 319H158C155.239 319 153 316.762 153 314V294C153 291.239 155.239 289 158 289H178Z" fill="#18335C"/>
<rect x="182" y="291" width="26" height="26" rx="5" transform="rotate(90 182 291)" fill="#C2C4C8"/>
<path d="M143 71C145.761 71 148 73.2386 148 76V96.0001C148 98.7615 145.761 101 143 101H123C120.239 101 118 98.7615 118 96.0001V76C118 73.2386 120.239 71 123 71H143Z" fill="#18335C"/>
<path d="M143 71C145.761 71 148 73.2386 148 76V96C148 98.7615 145.761 101 143 101H123C120.239 101 118 98.7615 118 96V76C118 73.2386 120.239 71 123 71H143Z" fill="#18335C"/>
<rect x="147" y="73.0001" width="26" height="26" rx="5" transform="rotate(90 147 73.0001)" fill="#C2C4C8"/>
<path d="M108 78C110.761 78 113 80.2386 113 83V103C113 105.761 110.761 108 108 108H88C85.2386 108 83 105.761 83 103V83C83 80.2386 85.2386 78 88 78H108Z" fill="#18335C"/>
<path d="M108 78C110.761 78 113 80.2386 113 83V103C113 105.761 110.761 108 108 108H88C85.2386 108 83 105.761 83 103V83C83 80.2386 85.2386 78 88 78H108Z" fill="#18335C"/>
<rect x="112" y="80.0001" width="26" height="26" rx="5" transform="rotate(90 112 80.0001)" fill="#C2C4C8"/>
<path d="M108 78C110.761 78 113 80.2386 113 83V103C113 105.761 110.761 108 108 108H88C85.2386 108 83 105.761 83 103V83C83 80.2386 85.2386 78 88 78H108Z" fill="#18335C"/>
<path d="M108 78C110.761 78 113 80.2386 113 83V103C113 105.761 110.761 108 108 108H88C85.2386 108 83 105.761 83 103V83C83 80.2386 85.2386 78 88 78H108Z" fill="#18335C"/>
<rect x="112" y="80.0001" width="26" height="26" rx="5" transform="rotate(90 112 80.0001)" fill="#C2C4C8"/>
<path d="M143 137C145.761 137 148 139.239 148 142V162C148 164.762 145.761 167 143 167H123C120.239 167 118 164.762 118 162V142C118 139.239 120.239 137 123 137H143Z" fill="#18335C"/>
<path d="M143 137C145.761 137 148 139.239 148 142V162C148 164.762 145.761 167 143 167H123C120.239 167 118 164.762 118 162V142C118 139.239 120.239 137 123 137H143Z" fill="#18335C"/>
<rect x="147" y="139" width="26" height="26" rx="5" transform="rotate(90 147 139)" fill="#C2C4C8"/>
<path d="M143 104C145.761 104 148 106.239 148 109V129C148 131.762 145.761 134 143 134H123C120.239 134 118 131.762 118 129V109C118 106.239 120.239 104 123 104H143Z" fill="#18335C"/>
<path d="M143 104C145.761 104 148 106.239 148 109V129C148 131.762 145.761 134 143 134H123C120.239 134 118 131.762 118 129V109C118 106.239 120.239 104 123 104H143Z" fill="#18335C"/>
<rect x="147" y="106" width="26" height="26" rx="5" transform="rotate(90 147 106)" fill="#C2C4C8"/>
<path d="M143 170C145.761 170 148 172.239 148 175V195C148 197.761 145.761 200 143 200H123C120.239 200 118 197.761 118 195V175C118 172.239 120.239 170 123 170H143Z" fill="#18335C"/>
<path d="M143 170C145.761 170 148 172.239 148 175V195C148 197.761 145.761 200 143 200H123C120.239 200 118 197.761 118 195V175C118 172.239 120.239 170 123 170H143Z" fill="#18335C"/>
<rect x="147" y="172" width="26" height="26" rx="5" transform="rotate(90 147 172)" fill="#C2C4C8"/>
<path d="M143 269C145.761 269 148 271.239 148 274V294C148 296.761 145.761 299 143 299H123C120.239 299 118 296.761 118 294V274C118 271.239 120.239 269 123 269H143Z" fill="#18335C"/>
<path d="M143 269C145.761 269 148 271.239 148 274V294C148 296.761 145.761 299 143 299H123C120.239 299 118 296.761 118 294V274C118 271.239 120.239 269 123 269H143Z" fill="#18335C"/>
<rect x="147" y="271" width="26" height="26" rx="5" transform="rotate(90 147 271)" fill="#C2C4C8"/>
<path d="M143 335C145.761 335 148 337.239 148 340V360C148 362.762 145.761 365 143 365H123C120.239 365 118 362.762 118 360V340C118 337.239 120.239 335 123 335H143Z" fill="#18335C"/>
<path d="M143 335C145.761 335 148 337.239 148 340V360C148 362.762 145.761 365 143 365H123C120.239 365 118 362.762 118 360V340C118 337.239 120.239 335 123 335H143Z" fill="#18335C"/>
<rect x="147" y="337" width="26" height="26" rx="5" transform="rotate(90 147 337)" fill="#C2C4C8"/>
<path d="M143 302C145.761 302 148 304.239 148 307V327C148 329.762 145.761 332 143 332H123C120.239 332 118 329.762 118 327V307C118 304.239 120.239 302 123 302H143Z" fill="#18335C"/>
<path d="M143 302C145.761 302 148 304.239 148 307V327C148 329.762 145.761 332 143 332H123C120.239 332 118 329.762 118 327V307C118 304.239 120.239 302 123 302H143Z" fill="#18335C"/>
<rect x="147" y="304" width="26" height="26" rx="5" transform="rotate(90 147 304)" fill="#C2C4C8"/>
<path d="M143 236C145.761 236 148 238.239 148 241V261C148 263.762 145.761 266 143 266H123C120.239 266 118 263.762 118 261V241C118 238.239 120.239 236 123 236H143Z" fill="#18335C"/>
<path d="M143 236C145.761 236 148 238.239 148 241V261C148 263.762 145.761 266 143 266H123C120.239 266 118 263.762 118 261V241C118 238.239 120.239 236 123 236H143Z" fill="#18335C"/>
<rect x="147" y="238" width="26" height="26" rx="5" transform="rotate(90 147 238)" fill="#C2C4C8"/>
<path d="M143 335C145.761 335 148 337.239 148 340V360C148 362.761 145.761 365 143 365H123C120.239 365 118 362.761 118 360V340C118 337.239 120.239 335 123 335H143Z" fill="#18335C"/>
<path d="M143 335C145.761 335 148 337.239 148 340V360C148 362.761 145.761 365 143 365H123C120.239 365 118 362.761 118 360V340C118 337.239 120.239 335 123 335H143Z" fill="#18335C"/>
<rect x="147" y="337" width="26" height="26" rx="5" transform="rotate(90 147 337)" fill="#C2C4C8"/>
<path d="M143 401C145.761 401 148 403.239 148 406V426C148 428.762 145.761 431 143 431H123C120.239 431 118 428.762 118 426V406C118 403.239 120.239 401 123 401H143Z" fill="#18335C"/>
<path d="M143 401C145.761 401 148 403.239 148 406V426C148 428.762 145.761 431 143 431H123C120.239 431 118 428.762 118 426V406C118 403.239 120.239 401 123 401H143Z" fill="#18335C"/>
<rect x="147" y="403" width="26" height="26" rx="5" transform="rotate(90 147 403)" fill="#C2C4C8"/>
<path d="M143 368C145.761 368 148 370.239 148 373V393C148 395.762 145.761 398 143 398H123C120.239 398 118 395.762 118 393V373C118 370.239 120.239 368 123 368H143Z" fill="#18335C"/>
<path d="M143 368C145.761 368 148 370.239 148 373V393C148 395.762 145.761 398 143 398H123C120.239 398 118 395.762 118 393V373C118 370.239 120.239 368 123 368H143Z" fill="#18335C"/>
<rect x="147" y="370" width="26" height="26" rx="5" transform="rotate(90 147 370)" fill="#C2C4C8"/>
<path d="M143 203C145.761 203 148 205.239 148 208V228C148 230.762 145.761 233 143 233H123C120.239 233 118 230.762 118 228V208C118 205.239 120.239 203 123 203H143Z" fill="#18335C"/>
<path d="M143 203C145.761 203 148 205.239 148 208V228C148 230.762 145.761 233 143 233H123C120.239 233 118 230.762 118 228V208C118 205.239 120.239 203 123 203H143Z" fill="#18335C"/>
<rect x="147" y="205" width="26" height="26" rx="5" transform="rotate(90 147 205)" fill="#C2C4C8"/>
<path d="M143 302C145.761 302 148 304.239 148 307V327C148 329.761 145.761 332 143 332H123C120.239 332 118 329.761 118 327V307C118 304.239 120.239 302 123 302H143Z" fill="#18335C"/>
<path d="M143 302C145.761 302 148 304.239 148 307V327C148 329.761 145.761 332 143 332H123C120.239 332 118 329.761 118 327V307C118 304.239 120.239 302 123 302H143Z" fill="#18335C"/>
<rect x="147" y="304" width="26" height="26" rx="5" transform="rotate(90 147 304)" fill="#C2C4C8"/>
<path d="M143 368C145.761 368 148 370.239 148 373V393C148 395.762 145.761 398 143 398H123C120.239 398 118 395.762 118 393V373C118 370.239 120.239 368 123 368H143Z" fill="#18335C"/>
<path d="M143 368C145.761 368 148 370.239 148 373V393C148 395.762 145.761 398 143 398H123C120.239 398 118 395.762 118 393V373C118 370.239 120.239 368 123 368H143Z" fill="#18335C"/>
<rect x="147" y="370" width="26" height="26" rx="5" transform="rotate(90 147 370)" fill="#C2C4C8"/>
<path d="M143 335C145.761 335 148 337.239 148 340V360C148 362.762 145.761 365 143 365H123C120.239 365 118 362.762 118 360V340C118 337.239 120.239 335 123 335H143Z" fill="#18335C"/>
<path d="M143 335C145.761 335 148 337.239 148 340V360C148 362.762 145.761 365 143 365H123C120.239 365 118 362.762 118 360V340C118 337.239 120.239 335 123 335H143Z" fill="#18335C"/>
<rect x="147" y="337" width="26" height="26" rx="5" transform="rotate(90 147 337)" fill="#C2C4C8"/>
<path d="M38 401.338C40.7614 401.338 43 403.577 43 406.338L43 433.176C43 435.937 40.7614 438.176 38 438.176H18C15.2386 438.176 13 435.937 13 433.176L13 406.338C13 403.577 15.2386 401.338 18 401.338H38Z" fill="#18335C"/>
<path d="M38 401.338C40.7614 401.338 43 404.087 43 407.478V432.036C43 435.427 40.7614 438.176 38 438.176H18C15.2386 438.176 13 435.427 13 432.036L13 407.478C13 404.087 15.2386 401.338 18 401.338H38Z" fill="#18335C"/>
<rect x="42" y="403.794" width="31.9256" height="26" rx="5" transform="rotate(90 42 403.794)" fill="#C2C4C8"/>
<path d="M38 441.163C40.7614 441.163 43 443.401 43 446.163L43 473C43 475.761 40.7614 478 38 478H18C15.2386 478 13 475.761 13 473L13 446.163C13 443.401 15.2386 441.163 18 441.163H38Z" fill="#18335C"/>
<path d="M38 441.163C40.7614 441.163 43 443.911 43 447.302V471.86C43 475.251 40.7614 478 38 478H18C15.2386 478 13 475.251 13 471.86L13 447.302C13 443.911 15.2386 441.163 18 441.163H38Z" fill="#18335C"/>
<rect x="42" y="443.619" width="31.9256" height="26" rx="5" transform="rotate(90 42 443.619)" fill="#C2C4C8"/>
</g>
<defs>
<clipPath id="clip0_1_2">
<rect width="500" height="200" fill="white" transform="translate(200) rotate(90)"/>
</clipPath>
</defs>
</svg>
