<svg width="194" height="493" viewBox="0 0 194 493" fill="none" xmlns="http://www.w3.org/2000/svg">
<g clip-path="url(#clip0_1_2)">
<path d="M168 0C182.359 0 194 11.6406 194 26L194 467C194 481.359 182.359 493 168 493H26C11.6406 493 -8.58307e-06 481.359 -8.58307e-06 467L-8.58307e-06 26C-8.58307e-06 11.6406 11.6406 0 26 0L168 0Z" fill="#0D203E"/>
<path d="M35 318C37.7614 318 40 320.239 40 323L40 349.837C40 352.599 37.7614 354.837 35 354.837H15C12.2386 354.837 10 352.599 10 349.837L10 323C10 320.239 12.2386 318 15 318H35Z" fill="black"/>
<path d="M35 318C37.7614 318 40 320.749 40 324.14V348.698C40 352.089 37.7614 354.837 35 354.837H15C12.2386 354.837 10 352.089 10 348.698L10 324.14C10 320.749 12.2386 318 15 318H35Z" fill="black"/>
<rect x="39" y="320.456" width="31.9256" height="26" rx="5" transform="rotate(90 39 320.456)" fill="#1D2035"/>
<path d="M35 358C37.7614 358 40 360.239 40 363L40 389.837C40 392.599 37.7614 394.837 35 394.837H15C12.2386 394.837 10 392.599 10 389.837L10 363C10 360.239 12.2386 358 15 358H35Z" fill="black"/>
<path d="M35 358C37.7614 358 40 360.749 40 364.14V388.698C40 392.089 37.7614 394.837 35 394.837H15C12.2386 394.837 10 392.089 10 388.698L10 364.14C10 360.749 12.2386 358 15 358H35Z" fill="black"/>
<rect x="39" y="360.456" width="31.9256" height="26" rx="5" transform="rotate(90 39 360.456)" fill="#1D2035"/>
<path d="M175 22C177.761 22 180 24.2386 180 27V47.0001C180 49.7615 177.761 52.0001 175 52.0001H155C152.239 52.0001 150 49.7615 150 47.0001V27C150 24.2386 152.239 22 155 22L175 22Z" fill="black"/>
<path d="M175 22C177.761 22 180 24.2386 180 27V47C180 49.7615 177.761 52.0001 175 52.0001H155C152.239 52.0001 150 49.7615 150 47V27C150 24.2386 152.239 22 155 22L175 22Z" fill="black"/>
<rect x="179" y="24.0001" width="26" height="26" rx="5" transform="rotate(90 179 24.0001)" fill="#1D2035"/>
<path d="M35 22C37.7614 22 40 24.2386 40 27L40 53.8374C40 56.5988 37.7614 58.8374 35 58.8374H15C12.2386 58.8374 10 56.5988 10 53.8374L10 27C10 24.2386 12.2386 22 15 22L35 22Z" fill="black"/>
<path d="M35 22C37.7614 22 40 24.7488 40 28.1395V52.6978C40 56.0885 37.7614 58.8374 35 58.8374H15C12.2386 58.8374 10 56.0885 10 52.6978L10 28.1395C10 24.7488 12.2386 22 15 22L35 22Z" fill="black"/>
<rect x="39" y="24.4559" width="31.9256" height="26" rx="5" transform="rotate(90 39 24.4559)" fill="#1D2035"/>
<path d="M35 63C37.7614 63 40 65.2386 40 68L40 95C40 97.7614 37.7614 100 35 100H15C12.2386 100 10 97.7614 10 95L10 68C10 65.2386 12.2386 63 15 63H35Z" fill="black"/>
<path d="M35 63C37.7614 63 40 65.7609 40 69.1666V93.8333C40 97.239 37.7614 100 35 100H15C12.2386 100 10 97.239 10 93.8333L10 69.1666C10 65.7609 12.2386 63 15 63H35Z" fill="black"/>
<rect x="39" y="65" width="32" height="26" rx="5" transform="rotate(90 39 65)" fill="#1D2035"/>
<path d="M35 104C37.7614 104 40 106.239 40 109L40 136C40 138.761 37.7614 141 35 141H15C12.2386 141 10 138.761 10 136L10 109C10 106.239 12.2386 104 15 104H35Z" fill="black"/>
<path d="M35 104C37.7614 104 40 106.761 40 110.167V134.833C40 138.239 37.7614 141 35 141H15C12.2386 141 10 138.239 10 134.833L10 110.167C10 106.761 12.2386 104 15 104H35Z" fill="black"/>
<rect x="39" y="106" width="32" height="26" rx="5" transform="rotate(90 39 106)" fill="#1D2035"/>
<path d="M105 108C107.761 108 110 110.239 110 113V133C110 135.761 107.761 138 105 138H85C82.2386 138 80 135.761 80 133V113C80 110.239 82.2386 108 85 108H105Z" fill="black"/>
<path d="M105 108C107.761 108 110 110.239 110 113V133C110 135.761 107.761 138 105 138H85C82.2386 138 80 135.761 80 133V113C80 110.239 82.2386 108 85 108H105Z" fill="black"/>
<rect x="109" y="110" width="26" height="26" rx="5" transform="rotate(90 109 110)" fill="#1D2035"/>
<path d="M105 141C107.761 141 110 143.239 110 146V166C110 168.761 107.761 171 105 171H85C82.2386 171 80 168.761 80 166V146C80 143.239 82.2386 141 85 141H105Z" fill="black"/>
<path d="M105 141C107.761 141 110 143.239 110 146V166C110 168.761 107.761 171 105 171H85C82.2386 171 80 168.761 80 166V146C80 143.239 82.2386 141 85 141H105Z" fill="black"/>
<rect x="109" y="143" width="26" height="26" rx="5" transform="rotate(90 109 143)" fill="#1D2035"/>
<path d="M105 174C107.761 174 110 176.239 110 179V199C110 201.761 107.761 204 105 204H85C82.2386 204 80 201.761 80 199V179C80 176.239 82.2386 174 85 174H105Z" fill="black"/>
<path d="M105 174C107.761 174 110 176.239 110 179V199C110 201.761 107.761 204 105 204H85C82.2386 204 80 201.761 80 199V179C80 176.239 82.2386 174 85 174H105Z" fill="black"/>
<rect x="109" y="176" width="26" height="26" rx="5" transform="rotate(90 109 176)" fill="#1D2035"/>
<path d="M105 207C107.761 207 110 209.239 110 212V232C110 234.761 107.761 237 105 237H85C82.2386 237 80 234.761 80 232V212C80 209.239 82.2386 207 85 207H105Z" fill="black"/>
<path d="M105 207C107.761 207 110 209.239 110 212V232C110 234.761 107.761 237 105 237H85C82.2386 237 80 234.761 80 232V212C80 209.239 82.2386 207 85 207H105Z" fill="black"/>
<rect x="109" y="209" width="26" height="26" rx="5" transform="rotate(90 109 209)" fill="#1D2035"/>
<path d="M105 240C107.761 240 110 242.239 110 245V265C110 267.761 107.761 270 105 270H85C82.2386 270 80 267.761 80 265V245C80 242.239 82.2386 240 85 240H105Z" fill="black"/>
<path d="M105 240C107.761 240 110 242.239 110 245V265C110 267.761 107.761 270 105 270H85C82.2386 270 80 267.761 80 265V245C80 242.239 82.2386 240 85 240H105Z" fill="black"/>
<rect x="109" y="242" width="26" height="26" rx="5" transform="rotate(90 109 242)" fill="#1D2035"/>
<path d="M105 273C107.761 273 110 275.239 110 278V298C110 300.761 107.761 303 105 303H85C82.2386 303 80 300.761 80 298V278C80 275.239 82.2386 273 85 273H105Z" fill="black"/>
<path d="M105 273C107.761 273 110 275.239 110 278V298C110 300.761 107.761 303 105 303H85C82.2386 303 80 300.761 80 298V278C80 275.239 82.2386 273 85 273H105Z" fill="black"/>
<rect x="109" y="275" width="26" height="26" rx="5" transform="rotate(90 109 275)" fill="#1D2035"/>
<path d="M105 306C107.761 306 110 308.239 110 311V331C110 333.761 107.761 336 105 336H85C82.2386 336 80 333.761 80 331V311C80 308.239 82.2386 306 85 306H105Z" fill="black"/>
<path d="M105 306C107.761 306 110 308.239 110 311V331C110 333.761 107.761 336 105 336H85C82.2386 336 80 333.761 80 331V311C80 308.239 82.2386 306 85 306H105Z" fill="black"/>
<rect x="109" y="308" width="26" height="26" rx="5" transform="rotate(90 109 308)" fill="#1D2035"/>
<path d="M105 339C107.761 339 110 341.239 110 344V364C110 366.761 107.761 369 105 369H85C82.2386 369 80 366.761 80 364V344C80 341.239 82.2386 339 85 339H105Z" fill="black"/>
<path d="M105 339C107.761 339 110 341.239 110 344V364C110 366.761 107.761 369 105 369H85C82.2386 369 80 366.761 80 364V344C80 341.239 82.2386 339 85 339H105Z" fill="black"/>
<rect x="109" y="341" width="26" height="26" rx="5" transform="rotate(90 109 341)" fill="#1D2035"/>
<path d="M105 372C107.761 372 110 374.239 110 377V397C110 399.761 107.761 402 105 402H85C82.2386 402 80 399.761 80 397V377C80 374.239 82.2386 372 85 372H105Z" fill="black"/>
<path d="M105 372C107.761 372 110 374.239 110 377V397C110 399.761 107.761 402 105 402H85C82.2386 402 80 399.761 80 397V377C80 374.239 82.2386 372 85 372H105Z" fill="black"/>
<rect x="109" y="374" width="26" height="26" rx="5" transform="rotate(90 109 374)" fill="#1D2035"/>
<path d="M105 406C107.761 406 110 408.239 110 411L110 470C110 472.761 107.761 475 105 475H85C82.2386 475 80 472.761 80 470V411C80 408.239 82.2386 406 85 406H105Z" fill="black"/>
<path d="M105 406C107.761 406 110 411.149 110 417.5V463.5C110 469.851 107.761 475 105 475H85C82.2386 475 80 469.851 80 463.5V417.5C80 411.149 82.2386 406 85 406H105Z" fill="black"/>
<rect x="109" y="408" width="64.9998" height="26" rx="5" transform="rotate(90 109 408)" fill="#1D2035"/>
<path d="M70 130C72.7614 130 75 132.239 75 135V155C75 157.761 72.7614 160 70 160H50C47.2386 160 45 157.761 45 155V135C45 132.239 47.2386 130 50 130H70Z" fill="black"/>
<path d="M70 130C72.7614 130 75 132.239 75 135V155C75 157.761 72.7614 160 70 160H50C47.2386 160 45 157.761 45 155V135C45 132.239 47.2386 130 50 130H70Z" fill="black"/>
<rect x="74" y="132" width="26" height="26" rx="5" transform="rotate(90 74 132)" fill="#1D2035"/>
<path d="M70 163C72.7614 163 75 165.239 75 168V188C75 190.761 72.7614 193 70 193H50C47.2386 193 45 190.761 45 188V168C45 165.239 47.2386 163 50 163H70Z" fill="black"/>
<path d="M70 163C72.7614 163 75 165.239 75 168V188C75 190.761 72.7614 193 70 193H50C47.2386 193 45 190.761 45 188V168C45 165.239 47.2386 163 50 163H70Z" fill="black"/>
<rect x="74" y="165" width="26" height="26" rx="5" transform="rotate(90 74 165)" fill="#1D2035"/>
<path d="M70 196C72.7614 196 75 198.239 75 201V221C75 223.761 72.7614 226 70 226H50C47.2386 226 45 223.761 45 221V201C45 198.239 47.2386 196 50 196H70Z" fill="black"/>
<path d="M70 196C72.7614 196 75 198.239 75 201V221C75 223.761 72.7614 226 70 226H50C47.2386 226 45 223.761 45 221V201C45 198.239 47.2386 196 50 196H70Z" fill="black"/>
<rect x="74" y="198" width="26" height="26" rx="5" transform="rotate(90 74 198)" fill="#1D2035"/>
<path d="M70 229C72.7614 229 75 231.239 75 234V254C75 256.761 72.7614 259 70 259H50C47.2386 259 45 256.761 45 254V234C45 231.239 47.2386 229 50 229H70Z" fill="black"/>
<path d="M70 229C72.7614 229 75 231.239 75 234V254C75 256.761 72.7614 259 70 259H50C47.2386 259 45 256.761 45 254V234C45 231.239 47.2386 229 50 229H70Z" fill="black"/>
<rect x="74" y="231" width="26" height="26" rx="5" transform="rotate(90 74 231)" fill="#1D2035"/>
<path d="M70 262C72.7614 262 75 264.239 75 267V287C75 289.761 72.7614 292 70 292H50C47.2386 292 45 289.761 45 287V267C45 264.239 47.2386 262 50 262H70Z" fill="black"/>
<path d="M70 262C72.7614 262 75 264.239 75 267V287C75 289.761 72.7614 292 70 292H50C47.2386 292 45 289.761 45 287V267C45 264.239 47.2386 262 50 262H70Z" fill="black"/>
<rect x="74" y="264" width="26" height="26" rx="5" transform="rotate(90 74 264)" fill="#1D2035"/>
<path d="M70 295C72.7614 295 75 297.239 75 300V320C75 322.761 72.7614 325 70 325H50C47.2386 325 45 322.761 45 320V300C45 297.239 47.2386 295 50 295H70Z" fill="black"/>
<path d="M70 295C72.7614 295 75 297.239 75 300V320C75 322.761 72.7614 325 70 325H50C47.2386 325 45 322.761 45 320V300C45 297.239 47.2386 295 50 295H70Z" fill="black"/>
<rect x="74" y="297" width="26" height="26" rx="5" transform="rotate(90 74 297)" fill="#1D2035"/>
<path d="M70 328C72.7614 328 75 330.239 75 333V353C75 355.761 72.7614 358 70 358H50C47.2386 358 45 355.761 45 353V333C45 330.239 47.2386 328 50 328H70Z" fill="black"/>
<path d="M70 328C72.7614 328 75 330.239 75 333V353C75 355.761 72.7614 358 70 358H50C47.2386 358 45 355.761 45 353V333C45 330.239 47.2386 328 50 328H70Z" fill="black"/>
<rect x="74" y="330" width="26" height="26" rx="5" transform="rotate(90 74 330)" fill="#1D2035"/>
<path d="M70 361C72.7614 361 75 363.239 75 366V386C75 388.761 72.7614 391 70 391H50C47.2386 391 45 388.761 45 386V366C45 363.239 47.2386 361 50 361H70Z" fill="black"/>
<path d="M70 361C72.7614 361 75 363.239 75 366V386C75 388.761 72.7614 391 70 391H50C47.2386 391 45 388.761 45 386V366C45 363.239 47.2386 361 50 361H70Z" fill="black"/>
<rect x="74" y="363" width="26" height="26" rx="5" transform="rotate(90 74 363)" fill="#1D2035"/>
<path d="M70 395C72.7614 395 75 397.239 75 400L75 470C75 472.761 72.7614 475 70 475H50C47.2386 475 45 472.761 45 470L45 400C45 397.239 47.2386 395 50 395H70Z" fill="black"/>
<path d="M70 395C72.7614 395 75 400.969 75 408.333L75 461.667C75 469.03 72.7614 475 70 475H50C47.2386 475 45 469.03 45 461.667L45 408.333C45 400.97 47.2386 395 50 395H70Z" fill="black"/>
<rect x="74" y="397" width="76" height="26" rx="5" transform="rotate(90 74 397)" fill="#1D2035"/>
<path d="M35 145C37.7614 145 40 147.239 40 150L40 309C40 311.761 37.7614 314 35 314H15C12.2386 314 10 311.761 10 309L10 150C10 147.239 12.2386 145 15 145H35Z" fill="black"/>
<path d="M35 145C37.7614 145 40 157.611 40 173.167L40 285.833C40 301.389 37.7614 314 35 314H15C12.2386 314 10 301.389 10 285.833L10 173.167C10 157.611 12.2386 145 15 145H35Z" fill="black"/>
<rect x="39" y="146.449" width="165.137" height="26" rx="5" transform="rotate(90 39 146.449)" fill="#1D2035"/>
<path d="M70 23C72.7614 23 75 25.2386 75 28L75 87C75 89.7614 72.7614 92 70 92H50C47.2386 92 45 89.7614 45 87L45 28C45 25.2386 47.2386 23 50 23L70 23Z" fill="black"/>
<path d="M70 23C72.7614 23 75 28.1487 75 34.4999V80.4999C75 86.8512 72.7614 92 70 92H50C47.2386 92 45 86.8512 45 80.4999L45 34.5C45 28.1487 47.2386 23 50 23L70 23Z" fill="black"/>
<rect x="74" y="25.0001" width="64.9998" height="26" rx="5" transform="rotate(90 74 25.0001)" fill="#1D2035"/>
<path d="M70 96C72.7614 96 75 98.2386 75 101V121C75 123.761 72.7614 126 70 126H50C47.2386 126 45 123.761 45 121V101C45 98.2386 47.2386 96 50 96H70Z" fill="black"/>
<path d="M70 96C72.7614 96 75 98.2386 75 101V121C75 123.761 72.7614 126 70 126H50C47.2386 126 45 123.761 45 121V101C45 98.2386 47.2386 96 50 96H70Z" fill="black"/>
<rect x="74" y="98.0001" width="26" height="26" rx="5" transform="rotate(90 74 98.0001)" fill="#1D2035"/>
<path d="M140 22C142.761 22 145 24.2386 145 27V59C145 61.7614 142.761 64 140 64H120C117.239 64 115 61.7614 115 59V27C115 24.2386 117.239 22 120 22L140 22Z" fill="black"/>
<path d="M140 22C142.761 22 145 25.134 145 29V57C145 60.8659 142.761 64 140 64H120C117.239 64 115 60.8659 115 57V29C115 25.134 117.239 22 120 22L140 22Z" fill="black"/>
<rect x="144" y="23.8261" width="37.9825" height="26" rx="5" transform="rotate(90 144 23.8261)" fill="#1D2035"/>
<path d="M105 22C107.761 22 110 24.2386 110 27V66C110 68.7614 107.761 71 105 71H85C82.2386 71 80 68.7614 80 66V27C80 24.2386 82.2386 22 85 22L105 22Z" fill="black"/>
<path d="M105 22C107.761 22 110 25.6563 110 30.1666V62.8333C110 67.3436 107.761 71 105 71H85C82.2386 71 80 67.3436 80 62.8333V30.1666C80 25.6563 82.2386 22 85 22L105 22Z" fill="black"/>
<rect x="109" y="24.1304" width="44.3129" height="26" rx="5" transform="rotate(90 109 24.1304)" fill="#1D2035"/>
<path d="M140 433C142.761 433 145 435.239 145 438V470C145 472.761 142.761 475 140 475H120C117.239 475 115 472.761 115 470V438C115 435.239 117.239 433 120 433H140Z" fill="black"/>
<path d="M140 433C142.761 433 145 436.134 145 440V468C145 471.866 142.761 475 140 475H120C117.239 475 115 471.866 115 468V440C115 436.134 117.239 433 120 433H140Z" fill="black"/>
<rect x="144" y="434.826" width="37.9825" height="26" rx="5" transform="rotate(90 144 434.826)" fill="#1D2035"/>
<path d="M175 385C177.761 385 180 387.239 180 390V410C180 412.761 177.761 415 175 415H155C152.239 415 150 412.761 150 410V390C150 387.239 152.239 385 155 385H175Z" fill="black"/>
<path d="M175 385C177.761 385 180 387.239 180 390V410C180 412.761 177.761 415 175 415H155C152.239 415 150 412.761 150 410V390C150 387.239 152.239 385 155 385H175Z" fill="black"/>
<rect x="179" y="387" width="26" height="26" rx="5" transform="rotate(90 179 387)" fill="#1D2035"/>
<path d="M175 418C177.761 418 180 420.239 180 423V469C180 471.761 177.761 474 175 474H155C152.239 474 150 471.761 150 469V423C150 420.239 152.239 418 155 418H175Z" fill="black"/>
<path d="M175 418C177.761 418 180 422.179 180 427.333V464.667C180 469.821 177.761 474 175 474H155C152.239 474 150 469.821 150 464.667V427.333C150 422.179 152.239 418 155 418H175Z" fill="black"/>
<rect x="179" y="420" width="51.9999" height="26" rx="5" transform="rotate(90 179 420)" fill="#1D2035"/>
<path d="M175 88.0001C177.761 88.0001 180 90.2386 180 93.0001V113C180 115.762 177.761 118 175 118H155C152.239 118 150 115.762 150 113V93.0001C150 90.2386 152.239 88.0001 155 88.0001H175Z" fill="black"/>
<path d="M175 88.0001C177.761 88.0001 180 90.2386 180 93V113C180 115.762 177.761 118 175 118H155C152.239 118 150 115.762 150 113V93.0001C150 90.2386 152.239 88.0001 155 88.0001H175Z" fill="black"/>
<rect x="179" y="90.0001" width="26" height="26" rx="5" transform="rotate(90 179 90.0001)" fill="#1D2035"/>
<path d="M175 55.0001C177.761 55.0001 180 57.2386 180 60.0001V80.0001C180 82.7616 177.761 85.0001 175 85.0001H155C152.239 85.0001 150 82.7616 150 80.0001V60.0001C150 57.2386 152.239 55.0001 155 55.0001H175Z" fill="black"/>
<path d="M175 55.0001C177.761 55.0001 180 57.2386 180 60V80.0001C180 82.7615 177.761 85.0001 175 85.0001H155C152.239 85.0001 150 82.7615 150 80.0001V60.0001C150 57.2386 152.239 55.0001 155 55.0001H175Z" fill="black"/>
<rect x="179" y="57.0001" width="26" height="26" rx="5" transform="rotate(90 179 57.0001)" fill="#1D2035"/>
<path d="M175 121C177.761 121 180 123.239 180 126V146C180 148.761 177.761 151 175 151H155C152.239 151 150 148.761 150 146V126C150 123.239 152.239 121 155 121H175Z" fill="black"/>
<path d="M175 121C177.761 121 180 123.239 180 126V146C180 148.761 177.761 151 175 151H155C152.239 151 150 148.761 150 146V126C150 123.239 152.239 121 155 121H175Z" fill="black"/>
<rect x="179" y="123" width="26" height="26" rx="5" transform="rotate(90 179 123)" fill="#1D2035"/>
<path d="M175 220C177.761 220 180 222.239 180 225V245C180 247.761 177.761 250 175 250H155C152.239 250 150 247.761 150 245V225C150 222.239 152.239 220 155 220H175Z" fill="black"/>
<path d="M175 220C177.761 220 180 222.239 180 225V245C180 247.761 177.761 250 175 250H155C152.239 250 150 247.761 150 245V225C150 222.239 152.239 220 155 220H175Z" fill="black"/>
<rect x="179" y="222" width="26" height="26" rx="5" transform="rotate(90 179 222)" fill="#1D2035"/>
<path d="M175 286C177.761 286 180 288.239 180 291V311C180 313.762 177.761 316 175 316H155C152.239 316 150 313.762 150 311V291C150 288.239 152.239 286 155 286H175Z" fill="black"/>
<path d="M175 286C177.761 286 180 288.239 180 291V311C180 313.762 177.761 316 175 316H155C152.239 316 150 313.762 150 311V291C150 288.239 152.239 286 155 286H175Z" fill="black"/>
<rect x="179" y="288" width="26" height="26" rx="5" transform="rotate(90 179 288)" fill="#1D2035"/>
<path d="M175 253C177.761 253 180 255.239 180 258V278C180 280.762 177.761 283 175 283H155C152.239 283 150 280.762 150 278V258C150 255.239 152.239 253 155 253H175Z" fill="black"/>
<path d="M175 253C177.761 253 180 255.239 180 258V278C180 280.762 177.761 283 175 283H155C152.239 283 150 280.762 150 278V258C150 255.239 152.239 253 155 253H175Z" fill="black"/>
<rect x="179" y="255" width="26" height="26" rx="5" transform="rotate(90 179 255)" fill="#1D2035"/>
<path d="M175 187C177.761 187 180 189.239 180 192V212C180 214.762 177.761 217 175 217H155C152.239 217 150 214.762 150 212V192C150 189.239 152.239 187 155 187H175Z" fill="black"/>
<path d="M175 187C177.761 187 180 189.239 180 192V212C180 214.762 177.761 217 175 217H155C152.239 217 150 214.762 150 212V192C150 189.239 152.239 187 155 187H175Z" fill="black"/>
<rect x="179" y="189" width="26" height="26" rx="5" transform="rotate(90 179 189)" fill="#1D2035"/>
<path d="M175 286C177.761 286 180 288.239 180 291V311C180 313.761 177.761 316 175 316H155C152.239 316 150 313.761 150 311V291C150 288.239 152.239 286 155 286H175Z" fill="black"/>
<path d="M175 286C177.761 286 180 288.239 180 291V311C180 313.761 177.761 316 175 316H155C152.239 316 150 313.761 150 311V291C150 288.239 152.239 286 155 286H175Z" fill="black"/>
<rect x="179" y="288" width="26" height="26" rx="5" transform="rotate(90 179 288)" fill="#1D2035"/>
<path d="M175 352C177.761 352 180 354.239 180 357V377C180 379.762 177.761 382 175 382H155C152.239 382 150 379.762 150 377V357C150 354.239 152.239 352 155 352H175Z" fill="black"/>
<path d="M175 352C177.761 352 180 354.239 180 357V377C180 379.762 177.761 382 175 382H155C152.239 382 150 379.762 150 377V357C150 354.239 152.239 352 155 352H175Z" fill="black"/>
<rect x="179" y="354" width="26" height="26" rx="5" transform="rotate(90 179 354)" fill="#1D2035"/>
<path d="M175 319C177.761 319 180 321.239 180 324V344C180 346.762 177.761 349 175 349H155C152.239 349 150 346.762 150 344V324C150 321.239 152.239 319 155 319H175Z" fill="black"/>
<path d="M175 319C177.761 319 180 321.239 180 324V344C180 346.762 177.761 349 175 349H155C152.239 349 150 346.762 150 344V324C150 321.239 152.239 319 155 319H175Z" fill="black"/>
<rect x="179" y="321" width="26" height="26" rx="5" transform="rotate(90 179 321)" fill="#1D2035"/>
<path d="M175 154C177.761 154 180 156.239 180 159V179C180 181.762 177.761 184 175 184H155C152.239 184 150 181.762 150 179V159C150 156.239 152.239 154 155 154H175Z" fill="black"/>
<path d="M175 154C177.761 154 180 156.239 180 159V179C180 181.762 177.761 184 175 184H155C152.239 184 150 181.762 150 179V159C150 156.239 152.239 154 155 154H175Z" fill="black"/>
<rect x="179" y="156" width="26" height="26" rx="5" transform="rotate(90 179 156)" fill="#1D2035"/>
<path d="M175 253C177.761 253 180 255.239 180 258V278C180 280.761 177.761 283 175 283H155C152.239 283 150 280.761 150 278V258C150 255.239 152.239 253 155 253H175Z" fill="black"/>
<path d="M175 253C177.761 253 180 255.239 180 258V278C180 280.761 177.761 283 175 283H155C152.239 283 150 280.761 150 278V258C150 255.239 152.239 253 155 253H175Z" fill="black"/>
<rect x="179" y="255" width="26" height="26" rx="5" transform="rotate(90 179 255)" fill="#1D2035"/>
<path d="M175 319C177.761 319 180 321.239 180 324V344C180 346.762 177.761 349 175 349H155C152.239 349 150 346.762 150 344V324C150 321.239 152.239 319 155 319H175Z" fill="black"/>
<path d="M175 319C177.761 319 180 321.239 180 324V344C180 346.762 177.761 349 175 349H155C152.239 349 150 346.762 150 344V324C150 321.239 152.239 319 155 319H175Z" fill="black"/>
<rect x="179" y="321" width="26" height="26" rx="5" transform="rotate(90 179 321)" fill="#1D2035"/>
<path d="M175 286C177.761 286 180 288.239 180 291V311C180 313.762 177.761 316 175 316H155C152.239 316 150 313.762 150 311V291C150 288.239 152.239 286 155 286H175Z" fill="black"/>
<path d="M175 286C177.761 286 180 288.239 180 291V311C180 313.762 177.761 316 175 316H155C152.239 316 150 313.762 150 311V291C150 288.239 152.239 286 155 286H175Z" fill="black"/>
<rect x="179" y="288" width="26" height="26" rx="5" transform="rotate(90 179 288)" fill="#1D2035"/>
<path d="M140 68C142.761 68 145 70.2386 145 73V93.0001C145 95.7615 142.761 98.0001 140 98.0001H120C117.239 98.0001 115 95.7615 115 93.0001V73C115 70.2386 117.239 68 120 68H140Z" fill="black"/>
<path d="M140 68C142.761 68 145 70.2386 145 73V93C145 95.7615 142.761 98.0001 140 98.0001H120C117.239 98.0001 115 95.7615 115 93V73C115 70.2386 117.239 68 120 68H140Z" fill="black"/>
<rect x="144" y="70.0001" width="26" height="26" rx="5" transform="rotate(90 144 70.0001)" fill="#1D2035"/>
<path d="M105 75C107.761 75 110 77.2386 110 80V100C110 102.761 107.761 105 105 105H85C82.2386 105 80 102.761 80 100V80C80 77.2386 82.2386 75 85 75H105Z" fill="black"/>
<path d="M105 75C107.761 75 110 77.2386 110 80V100C110 102.761 107.761 105 105 105H85C82.2386 105 80 102.761 80 100V80C80 77.2386 82.2386 75 85 75H105Z" fill="black"/>
<rect x="109" y="77.0001" width="26" height="26" rx="5" transform="rotate(90 109 77.0001)" fill="#1D2035"/>
<path d="M105 75C107.761 75 110 77.2386 110 80V100C110 102.761 107.761 105 105 105H85C82.2386 105 80 102.761 80 100V80C80 77.2386 82.2386 75 85 75H105Z" fill="black"/>
<path d="M105 75C107.761 75 110 77.2386 110 80V100C110 102.761 107.761 105 105 105H85C82.2386 105 80 102.761 80 100V80C80 77.2386 82.2386 75 85 75H105Z" fill="black"/>
<rect x="109" y="77.0001" width="26" height="26" rx="5" transform="rotate(90 109 77.0001)" fill="#1D2035"/>
<path d="M140 134C142.761 134 145 136.239 145 139V159C145 161.762 142.761 164 140 164H120C117.239 164 115 161.762 115 159V139C115 136.239 117.239 134 120 134H140Z" fill="black"/>
<path d="M140 134C142.761 134 145 136.239 145 139V159C145 161.762 142.761 164 140 164H120C117.239 164 115 161.762 115 159V139C115 136.239 117.239 134 120 134H140Z" fill="black"/>
<rect x="144" y="136" width="26" height="26" rx="5" transform="rotate(90 144 136)" fill="#1D2035"/>
<path d="M140 101C142.761 101 145 103.239 145 106V126C145 128.762 142.761 131 140 131H120C117.239 131 115 128.762 115 126V106C115 103.239 117.239 101 120 101H140Z" fill="black"/>
<path d="M140 101C142.761 101 145 103.239 145 106V126C145 128.762 142.761 131 140 131H120C117.239 131 115 128.762 115 126V106C115 103.239 117.239 101 120 101H140Z" fill="black"/>
<rect x="144" y="103" width="26" height="26" rx="5" transform="rotate(90 144 103)" fill="#1D2035"/>
<path d="M140 167C142.761 167 145 169.239 145 172V192C145 194.761 142.761 197 140 197H120C117.239 197 115 194.761 115 192V172C115 169.239 117.239 167 120 167H140Z" fill="black"/>
<path d="M140 167C142.761 167 145 169.239 145 172V192C145 194.761 142.761 197 140 197H120C117.239 197 115 194.761 115 192V172C115 169.239 117.239 167 120 167H140Z" fill="black"/>
<rect x="144" y="169" width="26" height="26" rx="5" transform="rotate(90 144 169)" fill="#1D2035"/>
<path d="M140 266C142.761 266 145 268.239 145 271V291C145 293.761 142.761 296 140 296H120C117.239 296 115 293.761 115 291V271C115 268.239 117.239 266 120 266H140Z" fill="black"/>
<path d="M140 266C142.761 266 145 268.239 145 271V291C145 293.761 142.761 296 140 296H120C117.239 296 115 293.761 115 291V271C115 268.239 117.239 266 120 266H140Z" fill="black"/>
<rect x="144" y="268" width="26" height="26" rx="5" transform="rotate(90 144 268)" fill="#1D2035"/>
<path d="M140 332C142.761 332 145 334.239 145 337V357C145 359.762 142.761 362 140 362H120C117.239 362 115 359.762 115 357V337C115 334.239 117.239 332 120 332H140Z" fill="black"/>
<path d="M140 332C142.761 332 145 334.239 145 337V357C145 359.762 142.761 362 140 362H120C117.239 362 115 359.762 115 357V337C115 334.239 117.239 332 120 332H140Z" fill="black"/>
<rect x="144" y="334" width="26" height="26" rx="5" transform="rotate(90 144 334)" fill="#1D2035"/>
<path d="M140 299C142.761 299 145 301.239 145 304V324C145 326.762 142.761 329 140 329H120C117.239 329 115 326.762 115 324V304C115 301.239 117.239 299 120 299H140Z" fill="black"/>
<path d="M140 299C142.761 299 145 301.239 145 304V324C145 326.762 142.761 329 140 329H120C117.239 329 115 326.762 115 324V304C115 301.239 117.239 299 120 299H140Z" fill="black"/>
<rect x="144" y="301" width="26" height="26" rx="5" transform="rotate(90 144 301)" fill="#1D2035"/>
<path d="M140 233C142.761 233 145 235.239 145 238V258C145 260.762 142.761 263 140 263H120C117.239 263 115 260.762 115 258V238C115 235.239 117.239 233 120 233H140Z" fill="black"/>
<path d="M140 233C142.761 233 145 235.239 145 238V258C145 260.762 142.761 263 140 263H120C117.239 263 115 260.762 115 258V238C115 235.239 117.239 233 120 233H140Z" fill="black"/>
<rect x="144" y="235" width="26" height="26" rx="5" transform="rotate(90 144 235)" fill="#1D2035"/>
<path d="M140 332C142.761 332 145 334.239 145 337V357C145 359.761 142.761 362 140 362H120C117.239 362 115 359.761 115 357V337C115 334.239 117.239 332 120 332H140Z" fill="black"/>
<path d="M140 332C142.761 332 145 334.239 145 337V357C145 359.761 142.761 362 140 362H120C117.239 362 115 359.761 115 357V337C115 334.239 117.239 332 120 332H140Z" fill="black"/>
<rect x="144" y="334" width="26" height="26" rx="5" transform="rotate(90 144 334)" fill="#1D2035"/>
<path d="M140 398C142.761 398 145 400.239 145 403V423C145 425.762 142.761 428 140 428H120C117.239 428 115 425.762 115 423V403C115 400.239 117.239 398 120 398H140Z" fill="black"/>
<path d="M140 398C142.761 398 145 400.239 145 403V423C145 425.762 142.761 428 140 428H120C117.239 428 115 425.762 115 423V403C115 400.239 117.239 398 120 398H140Z" fill="black"/>
<rect x="144" y="400" width="26" height="26" rx="5" transform="rotate(90 144 400)" fill="#1D2035"/>
<path d="M140 365C142.761 365 145 367.239 145 370V390C145 392.762 142.761 395 140 395H120C117.239 395 115 392.762 115 390V370C115 367.239 117.239 365 120 365H140Z" fill="black"/>
<path d="M140 365C142.761 365 145 367.239 145 370V390C145 392.762 142.761 395 140 395H120C117.239 395 115 392.762 115 390V370C115 367.239 117.239 365 120 365H140Z" fill="black"/>
<rect x="144" y="367" width="26" height="26" rx="5" transform="rotate(90 144 367)" fill="#1D2035"/>
<path d="M140 200C142.761 200 145 202.239 145 205V225C145 227.762 142.761 230 140 230H120C117.239 230 115 227.762 115 225V205C115 202.239 117.239 200 120 200H140Z" fill="black"/>
<path d="M140 200C142.761 200 145 202.239 145 205V225C145 227.762 142.761 230 140 230H120C117.239 230 115 227.762 115 225V205C115 202.239 117.239 200 120 200H140Z" fill="black"/>
<rect x="144" y="202" width="26" height="26" rx="5" transform="rotate(90 144 202)" fill="#1D2035"/>
<path d="M140 299C142.761 299 145 301.239 145 304V324C145 326.761 142.761 329 140 329H120C117.239 329 115 326.761 115 324V304C115 301.239 117.239 299 120 299H140Z" fill="black"/>
<path d="M140 299C142.761 299 145 301.239 145 304V324C145 326.761 142.761 329 140 329H120C117.239 329 115 326.761 115 324V304C115 301.239 117.239 299 120 299H140Z" fill="black"/>
<rect x="144" y="301" width="26" height="26" rx="5" transform="rotate(90 144 301)" fill="#1D2035"/>
<path d="M140 365C142.761 365 145 367.239 145 370V390C145 392.762 142.761 395 140 395H120C117.239 395 115 392.762 115 390V370C115 367.239 117.239 365 120 365H140Z" fill="black"/>
<path d="M140 365C142.761 365 145 367.239 145 370V390C145 392.762 142.761 395 140 395H120C117.239 395 115 392.762 115 390V370C115 367.239 117.239 365 120 365H140Z" fill="black"/>
<rect x="144" y="367" width="26" height="26" rx="5" transform="rotate(90 144 367)" fill="#1D2035"/>
<path d="M140 332C142.761 332 145 334.239 145 337V357C145 359.762 142.761 362 140 362H120C117.239 362 115 359.762 115 357V337C115 334.239 117.239 332 120 332H140Z" fill="black"/>
<path d="M140 332C142.761 332 145 334.239 145 337V357C145 359.762 142.761 362 140 362H120C117.239 362 115 359.762 115 357V337C115 334.239 117.239 332 120 332H140Z" fill="black"/>
<rect x="144" y="334" width="26" height="26" rx="5" transform="rotate(90 144 334)" fill="#1D2035"/>
<path d="M35 398.338C37.7614 398.338 40 400.577 40 403.338L40 430.176C40 432.937 37.7614 435.176 35 435.176H15C12.2386 435.176 10 432.937 10 430.176L10 403.338C10 400.577 12.2386 398.338 15 398.338H35Z" fill="black"/>
<path d="M35 398.338C37.7614 398.338 40 401.087 40 404.478V429.036C40 432.427 37.7614 435.176 35 435.176H15C12.2386 435.176 10 432.427 10 429.036L10 404.478C10 401.087 12.2386 398.338 15 398.338H35Z" fill="black"/>
<rect x="39" y="400.794" width="31.9256" height="26" rx="5" transform="rotate(90 39 400.794)" fill="#1D2035"/>
<path d="M35 438.163C37.7614 438.163 40 440.401 40 443.163L40 470C40 472.761 37.7614 475 35 475H15C12.2386 475 10 472.761 10 470L10 443.163C10 440.401 12.2386 438.163 15 438.163H35Z" fill="black"/>
<path d="M35 438.163C37.7614 438.163 40 440.911 40 444.302V468.86C40 472.251 37.7614 475 35 475H15C12.2386 475 10 472.251 10 468.86L10 444.302C10 440.911 12.2386 438.163 15 438.163H35Z" fill="black"/>
<rect x="39" y="440.619" width="31.9256" height="26" rx="5" transform="rotate(90 39 440.619)" fill="#1D2035"/>
</g>
<defs>
<clipPath id="clip0_1_2">
<rect width="493" height="194" fill="white" transform="translate(194) rotate(90)"/>
</clipPath>
</defs>
</svg>
